<svg width="54" height="48" viewBox="0 0 54 48" fill="none" xmlns="http://www.w3.org/2000/svg">
    <rect width="48" height="48" rx="24" fill="white" fill-opacity="0.05" />
    <path
        d="M25.5838 13.6723C25.1412 13.2993 24.5809 13.0947 24.002 13.0947C23.4231 13.0947 22.8629 13.2993 22.4202 13.6723L15.0566 19.8851C14.7832 20.1154 14.5635 20.4027 14.4128 20.7268C14.2621 21.0509 14.1839 21.404 14.1838 21.7614V31.9123C14.1838 32.9662 15.0391 33.8214 16.0929 33.8214H19.3657C19.872 33.8214 20.3576 33.6203 20.7156 33.2623C21.0736 32.9042 21.2747 32.4187 21.2747 31.9123V27.5454C21.2747 26.8036 21.866 26.2014 22.6024 26.1818H25.4017C25.757 26.1912 26.0947 26.339 26.3427 26.5937C26.5907 26.8484 26.7294 27.1899 26.7293 27.5454V31.9123C26.7293 32.9662 27.5846 33.8214 28.6384 33.8214H31.9111C32.4174 33.8214 32.903 33.6203 33.261 33.2623C33.6191 32.9042 33.8202 32.4187 33.8202 31.9123V21.7603C33.8201 21.4029 33.742 21.0498 33.5912 20.7257C33.4405 20.4016 33.2208 20.1143 32.9475 19.884L25.5838 13.6723Z"
        fill="#FAF9F6" />
</svg>
    