<svg width="102" height="38" viewBox="0 0 102 38" fill="none" xmlns="http://www.w3.org/2000/svg">
    <rect x="0.5" y="0.5" width="101" height="37" rx="18.5" fill="white" />
    <rect x="0.5" y="0.5" width="101" height="37" rx="18.5" stroke="url(#paint0_linear_1028_17)" />
    <g clip-path="url(#clip0_1028_17)">
        <path
            d="M27.9057 9.30664L26.5034 13.582C26.4316 13.8008 26.3096 13.9997 26.1471 14.1626C25.9847 14.3254 25.7864 14.4478 25.5682 14.5198L21.3047 15.926L25.5682 17.3322C25.7864 17.4042 25.9847 17.5266 26.1471 17.6894C26.3096 17.8523 26.4316 18.0512 26.5034 18.27L27.9057 22.5454L29.3081 18.27C29.3798 18.0512 29.5018 17.8523 29.6643 17.6894C29.8267 17.5266 30.025 17.4042 30.2432 17.3322L34.5067 15.926L30.2432 14.5198C30.025 14.4478 29.8267 14.3254 29.6643 14.1626C29.5018 13.9997 29.3798 13.8008 29.3081 13.582L27.9057 9.30664Z"
            fill="black" />
        <path
            d="M34.5066 19.603L33.6496 22.2158C33.6058 22.3495 33.5312 22.471 33.4319 22.5705C33.3327 22.6701 33.2115 22.7448 33.0781 22.7888L30.4727 23.6482L33.0781 24.5076C33.2115 24.5515 33.3327 24.6263 33.4319 24.7258C33.5312 24.8254 33.6058 24.9469 33.6496 25.0806L34.5066 27.6934L35.3636 25.0806C35.4075 24.9469 35.482 24.8254 35.5813 24.7258C35.6805 24.6263 35.8017 24.5515 35.9351 24.5076L38.5406 23.6482L35.9351 22.7888C35.8017 22.7448 35.6805 22.6701 35.5813 22.5705C35.482 22.471 35.4075 22.3495 35.3636 22.2158L34.5066 19.603Z"
            fill="black" />
    </g>
    <path
        d="M43.6746 16.58C43.6746 14.9 45.0186 13.794 47.0346 13.794C48.8406 13.794 50.0306 14.802 50.1846 16.482H49.1626C49.0506 15.348 48.2806 14.704 47.0206 14.704C45.6066 14.704 44.6826 15.432 44.6826 16.566C44.6826 17.448 45.2006 18.008 46.2506 18.274L47.9726 18.694C49.5406 19.072 50.3526 19.968 50.3526 21.326C50.3526 23.062 49.0086 24.168 46.9366 24.168C44.9906 24.168 43.6746 23.146 43.5486 21.508H44.5846C44.6406 22.558 45.5646 23.244 46.9366 23.244C48.4066 23.244 49.3446 22.53 49.3446 21.382C49.3446 20.486 48.8406 19.898 47.7626 19.646L46.0686 19.226C44.5006 18.848 43.6746 17.952 43.6746 16.58ZM52.9213 23.986H51.9553V13.794H52.9213V18.4C53.3553 17.588 54.1813 17.042 55.3153 17.042C57.0933 17.042 57.8913 18.148 57.8913 19.856V24H56.9253V20.066C56.9253 18.484 56.1833 17.924 55.1333 17.924C53.6773 17.924 52.9213 19.002 52.9213 20.304V23.986ZM59.3406 20.612C59.3406 18.54 60.7966 17.042 62.7846 17.042C64.7726 17.042 66.2286 18.54 66.2286 20.612C66.2286 22.67 64.7726 24.168 62.7846 24.168C60.7966 24.168 59.3406 22.67 59.3406 20.612ZM60.3206 20.598C60.3206 22.194 61.3286 23.3 62.7846 23.3C64.2266 23.3 65.2486 22.194 65.2486 20.598C65.2486 19.03 64.2266 17.91 62.7846 17.91C61.3286 17.91 60.3206 19.03 60.3206 20.598ZM67.7736 26.954V17.224H68.6136L68.7116 18.596C69.1876 17.546 70.1396 17.042 71.2736 17.042C73.2336 17.042 74.4096 18.54 74.4096 20.584C74.4096 22.628 73.2756 24.168 71.2736 24.168C70.1256 24.168 69.2156 23.678 68.7396 22.698V26.954H67.7736ZM68.7536 20.612C68.7536 22.166 69.6216 23.3 71.1056 23.3C72.5756 23.3 73.4296 22.166 73.4296 20.612C73.4296 19.044 72.5756 17.924 71.1056 17.924C69.6216 17.924 68.7536 19.044 68.7536 20.612Z"
        fill="black" />
    <defs>
        <linearGradient id="paint0_linear_1028_17" x1="99.3358" y1="-6.84" x2="-15.5436" y2="44.975"
            gradientUnits="userSpaceOnUse">
            <stop />
            <stop offset="1" stop-opacity="0" />
        </linearGradient>
        <clipPath id="clip0_1028_17">
            <rect width="18" height="19" fill="white" transform="translate(21 9)" />
        </clipPath>
    </defs>
</svg>
    